<svg width="498" height="498" viewBox="0 0 498 498" fill="none" xmlns="http://www.w3.org/2000/svg">
<path d="M170.565 389.436C164.672 389.021 147.325 399.562 217.377 401.969C287.429 404.376 337.976 401.056 353.165 396.325C368.354 391.511 356.734 388.855 350.758 388.606C344.782 388.357 170.565 389.436 170.565 389.436Z" fill="#1C3177"/>
<path d="M308.179 415.166C319.043 415.166 327.85 413.68 327.85 411.846C327.85 410.013 319.043 408.526 308.179 408.526C297.315 408.526 288.508 410.013 288.508 411.846C288.508 413.68 297.315 415.166 308.179 415.166Z" fill="#1C3177"/>
<path d="M142.345 397.072C162.285 397.072 178.45 394.991 178.45 392.424C178.45 389.857 162.285 387.776 142.345 387.776C122.405 387.776 106.24 389.857 106.24 392.424C106.24 394.991 122.405 397.072 142.345 397.072Z" fill="#1C3177"/>
<path d="M367.524 409.439C378.388 409.439 387.195 407.953 387.195 406.119C387.195 404.285 378.388 402.799 367.524 402.799C356.66 402.799 347.853 404.285 347.853 406.119C347.853 407.953 356.66 409.439 367.524 409.439Z" fill="#1C3177"/>
<path d="M161.435 407.779C169.136 407.779 175.379 406.739 175.379 405.455C175.379 404.172 169.136 403.131 161.435 403.131C153.734 403.131 147.491 404.172 147.491 405.455C147.491 406.739 153.734 407.779 161.435 407.779Z" fill="#1C3177"/>
<path d="M384.954 387.776C375.326 388.191 376.986 394.001 398.815 394.416C418.154 394.748 437.161 393.918 441.394 391.345C445.876 388.606 434.837 387.527 427.367 387.859C425.707 387.859 384.954 387.776 384.954 387.776Z" fill="#1C3177"/>
<path d="M62.8309 291.745L72.7909 227.088C73.5379 220.116 79.5139 214.804 86.4859 214.804H88.3119C96.2799 214.804 102.588 221.527 102.09 229.495L94.6199 275.145C94.5369 276.971 95.9479 278.548 97.7739 278.548H121.844C124.5 278.548 126.575 276.473 126.658 273.817L130.393 228.167C130.476 220.614 136.618 214.555 144.171 214.555H148.072C155.542 214.555 158.53 220.531 158.696 228.001L162.597 384.788C162.68 388.274 159.858 391.179 156.289 391.179H133.879C130.476 391.179 127.654 388.44 127.571 384.954L126.492 308.345H77.5219C68.8069 308.262 61.9179 300.543 62.8309 291.745Z" fill="#BECDFC"/>
<path d="M72.7908 291.745L79.9288 227.088C80.6758 220.116 86.6518 214.804 93.6238 214.804C101.592 214.804 107.9 221.527 107.402 229.495L104.58 275.145C104.497 276.971 105.908 278.548 107.734 278.548H131.804C134.46 278.548 136.535 276.473 136.618 273.817L137.199 228.167C137.282 220.614 143.424 214.555 150.977 214.555H154.878C162.348 214.555 168.49 220.531 168.656 228.001L172.557 384.788C172.64 388.274 169.818 391.179 166.249 391.179H143.839C140.436 391.179 137.614 388.44 137.531 384.954L136.452 308.345H87.4818C78.7668 308.262 71.8778 300.543 72.7908 291.745Z" fill="#8EA6F4"/>
<path d="M323.119 291.745L333.079 227.088C333.826 220.116 339.802 214.804 346.774 214.804H348.6C356.568 214.804 362.876 221.527 362.378 229.495L354.908 275.145C354.825 276.971 356.236 278.548 358.062 278.548H382.132C384.788 278.548 386.863 276.473 386.946 273.817L390.681 228.167C390.764 220.614 396.906 214.555 404.459 214.555H408.36C415.83 214.555 418.818 220.531 418.984 228.001L422.885 384.788C422.968 388.274 420.146 391.179 416.577 391.179H394.167C390.764 391.179 387.942 388.44 387.859 384.954L386.78 308.345H337.81C329.095 308.262 322.123 300.543 323.119 291.745Z" fill="#BECDFC"/>
<path d="M333.079 291.745L340.217 227.088C340.964 220.116 346.94 214.804 353.912 214.804C361.88 214.804 368.188 221.527 367.69 229.495L364.868 275.145C364.785 276.971 366.196 278.548 368.022 278.548H392.092C394.748 278.548 396.823 276.473 396.906 273.817L397.487 228.167C397.57 220.614 403.712 214.555 411.265 214.555H415.166C422.636 214.555 428.778 220.531 428.944 228.001L432.845 384.788C432.928 388.274 430.106 391.179 426.537 391.179H404.127C400.724 391.179 397.902 388.44 397.819 384.954L396.74 308.345H347.77C339.055 308.262 332.083 300.543 333.079 291.745Z" fill="#8EA6F4"/>
<path d="M356.651 382.796C355.738 387.195 351.837 390.266 347.355 390.266H289.089C282.615 390.266 277.967 383.875 279.959 377.982C280.125 377.567 280.291 377.069 280.54 376.654C280.623 376.488 280.789 376.239 280.872 376.073C284.773 369.599 293.488 373.915 293.82 374.081C293.82 373.998 293.654 373.832 293.571 373.5C292.824 371.923 291.247 367.358 295.148 365.947C299.962 364.204 304.61 369.267 304.61 369.267C304.61 369.267 307.266 354.161 318.388 354.161C329.51 354.161 326.024 369.516 326.024 369.516C326.024 369.516 332.166 359.888 337.893 362.71C343.454 365.532 339.553 373.832 339.47 374.081C339.802 373.832 348.6 367.856 354.576 374.745C356.9 377.401 357.149 380.306 356.651 382.796Z" fill="#FEC272"/>
<path d="M346.774 390.266H289.172C282.698 390.266 278.05 383.875 280.042 377.982C280.706 379.725 281.868 381.717 284.026 383.46C289.338 387.859 295.646 384.456 295.646 384.456C295.646 384.456 296.061 376.82 300.626 376.82C305.191 376.82 306.353 379.891 306.353 379.891C306.353 379.891 310.337 372.421 315.898 372.255C321.459 372.089 322.04 379.725 322.04 379.725C322.04 379.725 324.945 376.654 327.601 377.401C330.257 378.148 329.344 382.713 329.344 382.713C329.344 382.713 335.486 379.808 341.545 382.298C345.612 384.041 346.525 387.942 346.774 390.266Z" fill="#FF8D76"/>
<path d="M356.651 382.796C355.738 387.195 351.837 390.266 347.355 390.266H346.774C346.774 390.266 356.319 382.381 352.335 376.571C348.351 370.844 336.897 376.737 336.648 376.82C336.731 376.405 339.719 366.86 335.901 365.283C332 363.623 324.945 373.915 324.945 373.915C324.945 373.915 325.36 358.062 317.558 357.232C309.175 356.319 305.938 372.836 305.938 372.836C305.938 372.836 300.294 366.611 296.393 367.939C292.575 369.267 294.069 374.247 294.152 374.496L293.571 373.5C292.824 371.923 291.247 367.358 295.148 365.947C299.962 364.204 304.61 369.267 304.61 369.267C304.61 369.267 307.266 354.161 318.388 354.161C329.51 354.161 326.024 369.516 326.024 369.516C326.024 369.516 332.166 359.888 337.893 362.71C343.454 365.532 339.553 373.832 339.47 374.081C339.802 373.832 348.6 367.856 354.576 374.745C356.9 377.401 357.149 380.306 356.651 382.796Z" fill="#FFD29C"/>
<path d="M189.157 390.266C189.157 390.266 187.331 318.637 187.331 277.469C187.331 236.301 208.828 211.816 252.237 211.816C288.01 211.816 303.448 220.78 307.017 279.295C310.586 337.81 312.08 390.266 312.08 390.266H189.157Z" fill="#E1ECFF"/>
<path d="M209.99 390.266C209.99 390.266 208.496 318.637 208.496 277.469C208.496 236.301 226.839 211.816 257.383 211.816C287.927 211.816 307.515 220.78 310.586 279.295C313.657 337.81 314.902 390.266 314.902 390.266H209.99Z" fill="#CDE0FC"/>
<path d="M243.19 320.961C236.467 319.052 231.819 334.241 237.38 337.81C242.941 341.379 251.158 323.202 243.19 320.961Z" fill="#E1ECFF"/>
<path d="M294.982 304.942C290.5 303.697 287.346 313.823 291.081 316.23C294.816 318.554 300.377 306.436 294.982 304.942Z" fill="#E1ECFF"/>
<path d="M240.949 246.344C236.467 245.099 233.313 255.225 237.048 257.632C240.783 259.956 246.344 247.838 240.949 246.344Z" fill="#E1ECFF"/>
<path d="M264.106 261.035C258.877 259.956 255.308 268.754 259.624 270.829C263.94 272.904 270.331 262.363 264.106 261.035Z" fill="#E1ECFF"/>
<path d="M284.607 238.459C278.299 236.716 273.817 250.992 279.129 254.395C284.441 257.798 292.16 240.617 284.607 238.459Z" fill="#E1ECFF"/>
<path d="M286.599 342.541C277.552 339.968 271.244 360.386 278.714 365.283C286.267 370.014 297.389 345.529 286.599 342.541Z" fill="#E1ECFF"/>
<path d="M241.53 319.965C234.807 318.056 230.159 333.245 235.72 336.814C241.281 340.383 249.498 322.206 241.53 319.965Z" fill="#99ADF9"/>
<path d="M293.322 303.863C288.84 302.618 285.686 312.744 289.421 315.151C293.156 317.558 298.717 305.357 293.322 303.863Z" fill="#99ADF9"/>
<path d="M239.289 245.265C234.807 244.02 231.653 254.146 235.388 256.553C239.123 258.96 244.684 246.759 239.289 245.265Z" fill="#99ADF9"/>
<path d="M262.446 259.956C257.217 258.877 253.648 267.675 257.964 269.75C262.28 271.825 268.671 261.284 262.446 259.956Z" fill="#99ADF9"/>
<path d="M282.947 237.463C276.639 235.72 272.157 249.996 277.469 253.399C282.781 256.802 290.5 239.538 282.947 237.463Z" fill="#99ADF9"/>
<path d="M284.939 341.462C275.892 338.889 269.584 359.307 277.054 364.204C284.607 369.018 295.729 344.533 284.939 341.462Z" fill="#99ADF9"/>
<path d="M212.812 251.158C206.089 249.166 201.441 265.517 207.002 269.335C212.563 273.153 220.863 253.565 212.812 251.158Z" fill="#CDE0FC"/>
<path d="M200.445 300.128C194.967 298.468 191.149 311.831 195.714 314.985C200.196 318.139 207.002 302.12 200.445 300.128Z" fill="#CDE0FC"/>
<path d="M222.274 222.523C216.796 220.863 212.978 234.226 217.543 237.38C222.108 240.534 228.831 224.515 222.274 222.523Z" fill="#CDE0FC"/>
<path d="M242.36 302.95H235.471C235.056 302.95 234.89 302.618 234.724 302.203L230.076 293.239L229.827 293.073C229.495 293.073 228.25 293.073 227.918 293.073V302.203C227.918 302.618 227.586 302.95 227.171 302.95H221.112C220.697 302.95 220.365 302.618 220.365 302.203V277.801C220.365 275.975 220.946 275.56 222.523 275.311C224.017 275.062 227.752 274.813 230.408 274.813C237.38 274.813 242.111 277.054 242.111 283.86V284.441C242.111 288.425 239.87 290.832 237.546 291.828L242.941 301.954C243.024 302.12 243.024 302.286 243.024 302.369C242.941 302.701 242.692 302.95 242.36 302.95ZM234.475 283.86C234.475 282.117 233.23 281.204 230.74 281.204C230.491 281.204 228.084 281.287 227.835 281.287V287.263C228.001 287.263 230.325 287.263 230.574 287.263C233.479 287.263 234.475 286.267 234.475 284.524V283.86Z" fill="#99ADF9"/>
<path d="M249.83 302.95H249.498C247.672 302.95 246.178 301.456 246.178 299.63C246.178 297.804 247.672 296.31 249.498 296.31H249.83C251.656 296.31 253.15 297.804 253.15 299.63C253.233 301.456 251.739 302.95 249.83 302.95Z" fill="#99ADF9"/>
<path d="M264.438 302.95H258.296C257.881 302.95 257.549 302.618 257.549 302.203V275.892C257.549 275.477 257.881 275.145 258.296 275.145H264.438C264.853 275.145 265.185 275.477 265.185 275.892V302.203C265.185 302.618 264.853 302.95 264.438 302.95Z" fill="#99ADF9"/>
<path d="M273.236 302.95H272.904C271.078 302.95 269.501 301.456 269.501 299.547C269.501 297.721 270.995 296.227 272.821 296.227H273.153C274.979 296.227 276.556 297.721 276.556 299.63C276.556 301.456 275.062 302.95 273.236 302.95Z" fill="#99ADF9"/>
<path d="M291.081 293.903C290.251 293.903 289.421 293.82 288.425 293.82V302.203C288.425 302.618 288.093 302.95 287.678 302.95H281.702C281.287 302.95 280.955 302.701 280.955 302.286V277.801C280.955 275.975 281.536 275.56 283.113 275.311C285.022 274.979 288.342 274.813 290.998 274.813C296.559 274.813 302.618 276.722 302.618 284.192V284.524C302.618 291.828 296.476 293.903 291.081 293.903ZM295.065 284.192C295.065 282.034 293.571 281.204 291.081 281.204C290.832 281.204 288.674 281.204 288.425 281.204V287.595C288.591 287.595 290.832 287.595 291.081 287.595C293.737 287.595 295.065 286.599 295.065 284.524V284.192Z" fill="#99ADF9"/>
<path d="M263.193 379.393C261.782 386.365 255.474 391.262 248.336 391.262H155.376C145.001 391.262 137.614 381.053 140.768 371.674C141.017 370.927 141.266 370.263 141.681 369.516C141.847 369.184 142.013 368.852 142.262 368.52C148.487 358.228 162.348 365.117 162.929 365.366C162.929 365.283 162.763 364.951 162.514 364.453C161.352 361.963 158.779 354.659 165.087 352.418C172.806 349.596 180.11 357.647 180.11 357.647C180.11 357.647 184.343 333.494 202.188 333.494C220.033 333.494 214.472 357.979 214.472 357.979C214.472 357.979 224.266 342.541 233.396 347.106C242.36 351.588 236.052 364.785 235.886 365.283C236.467 364.868 250.411 355.406 260.039 366.362C263.525 370.678 264.023 375.243 263.193 379.393Z" fill="#FEC272"/>
<path d="M247.423 391.262H155.376C145.001 391.262 137.614 381.053 140.768 371.674C141.847 374.496 143.756 377.65 147.076 380.472C155.625 387.527 165.668 381.966 165.668 381.966C165.668 381.966 166.249 369.765 173.636 369.765C180.94 369.765 182.766 374.662 182.766 374.662C182.766 374.662 189.157 362.793 198.038 362.461C206.919 362.129 207.832 374.33 207.832 374.33C207.832 374.33 212.397 369.433 216.713 370.678C220.946 371.923 219.452 379.227 219.452 379.227C219.452 379.227 229.246 374.662 238.957 378.646C245.597 381.302 247.091 387.527 247.423 391.262Z" fill="#FF8D76"/>
<path d="M263.193 379.393C261.782 386.365 255.474 391.262 248.336 391.262H247.34C247.34 391.262 262.612 378.729 256.221 369.433C249.913 360.22 231.57 369.682 231.238 369.848C231.404 369.267 236.135 353.995 229.993 351.422C223.768 348.849 212.48 365.117 212.48 365.117C212.48 365.117 213.061 339.802 200.694 338.391C187.331 336.897 182.102 363.291 182.102 363.291C182.102 363.291 173.138 353.414 166.83 355.489C160.771 357.564 163.178 365.532 163.344 366.03L162.348 364.453C161.186 361.963 158.613 354.659 164.921 352.418C172.64 349.596 179.944 357.647 179.944 357.647C179.944 357.647 184.177 333.494 202.022 333.494C219.867 333.494 214.306 357.979 214.306 357.979C214.306 357.979 224.1 342.541 233.23 347.106C242.194 351.588 235.886 364.785 235.72 365.283C236.301 364.868 250.245 355.406 259.873 366.362C263.525 370.678 264.023 375.243 263.193 379.393Z" fill="#FFD29C"/>
<path d="M202.769 153.799C202.769 153.799 203.931 153.716 206.006 153.467C208.081 153.301 211.069 153.052 214.638 152.803C218.207 152.554 222.44 152.305 226.922 152.139C229.163 152.056 231.487 151.973 233.894 151.89C236.301 151.807 238.708 151.807 241.032 151.724C245.846 151.641 250.66 151.558 255.225 151.641C259.707 151.641 263.94 151.807 267.592 151.89C271.161 152.056 274.232 152.222 276.307 152.388C277.386 152.471 278.216 152.554 278.714 152.554C279.295 152.637 279.627 152.637 279.627 152.637C280.208 152.72 280.54 152.969 280.457 153.301C280.374 153.55 279.876 153.799 279.378 153.799H279.295C279.295 153.799 278.133 153.799 276.058 153.716C273.983 153.633 270.995 153.633 267.426 153.633C263.857 153.633 259.707 153.633 255.225 153.633C252.984 153.633 250.66 153.716 248.336 153.716C246.012 153.716 243.605 153.799 241.198 153.799C236.384 153.882 231.653 153.965 227.171 154.131C222.689 154.214 218.539 154.38 214.97 154.463C207.832 154.712 203.018 154.878 203.018 154.878C202.437 154.878 201.939 154.629 201.939 154.297C201.856 154.131 202.188 153.799 202.769 153.799Z" fill="#E1EAF6"/>
<path d="M182.6 159.609C182.6 159.609 182.185 159.692 181.438 159.941C180.691 160.19 179.612 160.522 178.367 161.103C177.786 161.352 177.039 161.767 176.541 162.182C176.209 162.348 176.043 162.597 175.794 162.846C175.628 163.095 175.545 163.261 175.545 163.427C175.545 163.593 175.628 163.676 175.711 163.842C175.794 163.925 175.877 164.008 176.043 164.174C176.126 164.257 176.292 164.423 176.458 164.506C177.122 165.004 178.118 165.502 179.114 166C179.695 166.249 180.193 166.498 180.857 166.664L181.272 166.83L181.521 166.913H181.604C181.604 166.913 181.438 166.83 181.521 166.913H181.604C181.936 166.996 182.268 167.079 182.6 167.245C183.264 167.494 183.928 167.66 184.675 167.909C185.339 168.075 186.003 168.241 186.667 168.407C189.406 169.071 192.477 169.652 195.631 170.15C198.868 170.565 202.105 170.98 205.591 171.312C208.994 171.644 212.48 171.81 215.966 172.059C219.452 172.225 222.938 172.391 226.424 172.474C229.91 172.557 233.313 172.723 236.55 172.723C239.87 172.723 243.107 172.889 246.095 172.889C249.083 172.889 251.988 172.972 254.644 172.972C265.268 172.972 272.323 172.972 272.323 172.972C272.904 172.972 273.402 173.387 273.402 173.802C273.402 174.217 272.987 174.549 272.489 174.632C272.489 174.632 272.074 174.715 271.244 174.798C270.414 174.881 269.169 175.047 267.675 175.213C264.604 175.545 260.205 175.96 254.81 176.292C252.154 176.458 249.249 176.624 246.178 176.707C244.684 176.79 243.107 176.79 241.447 176.873C239.787 176.956 238.21 176.956 236.55 176.956C233.23 176.956 229.744 177.039 226.258 176.956C222.772 176.873 219.203 176.79 215.551 176.624C211.982 176.458 208.413 176.126 204.844 175.794C201.358 175.462 197.872 174.881 194.552 174.3C192.892 173.968 191.232 173.636 189.655 173.304C188.078 172.889 186.501 172.557 185.007 172.059C184.26 171.81 183.513 171.561 182.766 171.395C182.102 171.146 181.438 170.897 180.774 170.648C180.442 170.482 180.11 170.399 179.778 170.233L179.695 170.15L179.529 170.067H179.446L179.197 169.984L178.699 169.735C178.035 169.486 177.454 169.154 176.79 168.822C175.545 168.158 174.383 167.494 173.387 166.581C173.138 166.332 172.889 166.083 172.64 165.834C172.391 165.585 172.225 165.253 172.059 164.921C171.727 164.257 171.644 163.427 171.81 162.68C172.059 161.933 172.474 161.435 172.972 160.937C173.47 160.522 173.885 160.19 174.383 159.941C175.296 159.443 176.209 159.111 176.956 158.862C178.533 158.364 179.778 158.115 180.608 157.949C181.438 157.783 181.936 157.783 181.936 157.783C182.517 157.7 183.015 158.032 183.098 158.53C183.43 159.111 183.098 159.526 182.6 159.609Z" fill="#E1EAF6"/>
<path d="M353.165 172.308C352.003 174.964 350.841 177.454 349.679 179.778C339.968 198.536 328.68 205.176 324.198 204.263C319.218 203.184 321.625 198.038 318.222 195.88C314.736 193.722 305.191 201.69 298.883 197.706C292.658 193.722 294.899 187.165 288.84 186.667C282.864 186.086 276.39 188.493 270.165 184.924C263.94 181.355 266.264 178.533 277.967 169.32C289.753 160.107 296.476 145.001 299.547 128.484C301.954 115.536 307.432 108.315 314.736 105.493C322.123 102.671 331.419 104.497 341.13 109.643C360.386 119.852 363.54 147.823 353.165 172.308Z" fill="#FF97C9"/>
<path d="M349.679 179.695C339.968 198.453 328.68 205.093 324.198 204.18C319.218 203.101 321.625 197.955 318.222 195.797C314.736 193.639 305.191 201.607 298.883 197.623C292.658 193.639 294.899 187.082 288.84 186.584C282.864 186.003 276.39 188.41 270.165 184.841C263.94 181.272 266.264 178.45 277.967 169.237C289.753 160.024 296.476 144.918 299.547 128.401C301.954 115.453 307.432 108.232 314.736 105.41C312.91 109.311 309.175 118.275 305.606 132.136C301.124 149.234 299.381 158.779 302.12 167.577C304.859 176.375 310.586 178.284 318.969 176.043C327.352 173.802 323.949 184.841 334.739 184.758C340.051 184.758 345.529 182.268 349.679 179.695Z" fill="#FF8AC7"/>
<path d="M310.669 160.19C310.337 160.273 299.547 162.846 292.409 163.344C285.271 163.842 276.141 163.427 273.319 158.696C271.991 156.455 272.157 155.044 273.651 153.799C275.394 152.388 278.963 151.309 284.192 149.815C294.069 146.993 305.357 141.266 305.357 141.266C320.712 145.084 310.669 160.19 310.669 160.19Z" fill="#FF97C9"/>
<path d="M310.669 160.19C310.337 160.273 299.547 162.846 292.409 163.344C285.271 163.842 276.141 163.427 273.319 158.696C271.991 156.455 272.157 155.044 273.651 153.799C275.228 155.21 277.801 156.704 281.868 157.949C293.239 161.435 310.669 160.19 310.669 160.19Z" fill="#FF8AC7"/>
<path d="M290.749 164.672C287.844 164.672 284.856 164.589 282.117 164.257C273.651 163.427 271.659 158.53 271.244 157.285C270.912 156.787 270.746 156.123 270.912 155.376C271.327 153.55 273.568 151.973 277.635 150.562C285.437 147.823 290.583 145.914 296.891 143.341C303.614 140.519 305.689 140.602 306.021 140.685C306.685 140.768 307.183 141.349 307.1 142.096C307.017 142.76 306.436 143.258 305.689 143.175C305.689 143.175 303.863 143.175 297.804 145.665C291.496 148.321 286.267 150.147 278.465 152.969C273.651 154.629 273.319 155.957 273.319 156.04C273.485 156.206 273.568 156.372 273.568 156.538C273.568 156.704 274.73 161.103 282.283 161.85C290.915 162.68 301.539 162.099 306.519 160.605C311.001 159.194 312.163 156.787 312.827 152.388C312.91 151.724 313.574 151.226 314.238 151.309C314.902 151.392 315.4 152.056 315.317 152.72C314.57 157.783 312.91 161.186 307.266 163.012C303.697 164.008 297.306 164.672 290.749 164.672Z" fill="#F774B9"/>
<path d="M325.028 205.176C324.53 205.176 323.949 205.093 323.534 204.927C320.878 204.014 320.214 202.52 319.467 199.449C319.301 198.702 318.803 197.374 317.641 196.793C316.562 196.295 315.068 196.461 313.325 197.291C307.266 200.113 301.954 200.445 297.555 198.121C294.65 196.627 293.571 193.639 292.741 191.315C292.077 189.572 291.496 187.995 290.5 187.746C289.089 187.331 286.682 187.58 284.192 187.746C280.789 187.995 276.971 188.327 273.485 187.58C268.505 186.584 266.845 184.509 266.264 182.932C265.766 181.687 265.683 179.695 267.675 177.122C270.746 173.221 283.196 162.597 283.777 162.182C284.275 161.767 285.105 161.767 285.52 162.348C285.935 162.846 285.935 163.676 285.354 164.091C285.188 164.174 272.572 174.964 269.584 178.699C268.837 179.612 268.09 180.94 268.588 182.102C269.086 183.43 271.078 184.592 273.983 185.173C277.22 185.837 280.789 185.505 284.026 185.256C286.931 185.007 289.421 184.841 291.247 185.339C293.488 186.003 294.318 188.244 295.148 190.485C295.978 192.643 296.808 194.884 298.8 195.963C302.452 197.872 307.017 197.623 312.329 195.133C315.483 193.639 317.558 194.054 318.803 194.635C320.38 195.382 321.459 196.959 321.957 199.034C322.621 201.939 323.036 202.271 324.447 202.686C325.858 203.184 328.763 200.943 330.008 200.196C330.589 199.864 331.336 200.03 331.751 200.611C332.083 201.192 331.917 201.939 331.336 202.354C330.755 202.437 327.767 205.176 325.028 205.176Z" fill="#F774B9"/>
<path d="M295.48 146.329C295.314 146.329 295.231 146.329 295.065 146.246C294.401 145.997 294.069 145.333 294.235 144.669C294.235 144.586 296.31 138.195 297.555 131.97C298.634 126.575 300.875 116.864 304.444 112.05C308.677 106.24 316.811 104.746 317.143 104.663C317.807 104.497 318.471 104.829 318.72 105.493C318.886 106.157 318.554 106.821 317.89 107.07C317.807 107.07 310.171 108.481 306.436 113.544C303.033 118.109 300.792 128.318 300.045 132.468C298.8 138.859 296.725 145.416 296.725 145.499C296.476 145.914 295.978 146.329 295.48 146.329Z" fill="#F774B9"/>
<path d="M342.956 165.419C342.624 166.083 342.126 166.747 341.545 167.328C336.98 172.474 329.178 175.13 326.854 171.81C325.526 169.901 325.277 167.909 325.858 165.917C327.269 160.439 334.324 155.376 338.723 155.459C343.952 155.459 345.695 160.605 342.956 165.419Z" fill="#1C3177"/>
<path d="M342.956 165.419C342.624 166.083 342.126 166.747 341.545 167.328C336.98 172.474 329.178 175.13 326.854 171.81C325.526 169.901 325.277 167.909 325.858 165.917C330.091 163.012 341.877 162.846 342.956 165.419Z" fill="#F774B9"/>
<path d="M350.841 129.978C347.189 129.978 343.62 137.199 346.691 142.013C349.762 146.827 354.825 144.005 355.904 139.855C357.149 134.875 355.987 129.895 350.841 129.978Z" fill="white"/>
<path d="M348.932 136.286C346.774 136.037 344.616 139.44 346.359 142.096C348.102 144.752 351.09 143.673 351.754 141.598C352.584 139.191 352.003 136.535 348.932 136.286Z" fill="#1C3177"/>
<path d="M331.502 126.16C327.601 125.662 322.538 132.717 325.111 138.444C327.684 144.171 333.494 141.847 335.32 137.614C337.561 132.468 337.146 126.907 331.502 126.16Z" fill="white"/>
<path d="M327.103 132.717C324.945 132.468 322.787 135.871 324.53 138.527C326.273 141.183 329.261 140.104 329.925 138.029C330.755 135.622 330.174 133.049 327.103 132.717Z" fill="#1C3177"/>
</svg>
