<svg xmlns="http://www.w3.org/2000/svg" version="1.1" xmlns:xlink="http://www.w3.org/1999/xlink" xmlns:svgjs="http://svgjs.dev/svgjs" width="1440" height="560" preserveAspectRatio="none" viewBox="0 0 1440 560"><g mask="url(&quot;#SvgjsMask1010&quot;)" fill="none"><rect width="1440" height="560" x="0" y="0" fill="url(&quot;#SvgjsLinearGradient1011&quot;)"></rect><path d="M0 0L419.63 0L0 214.25z" fill="rgba(255, 255, 255, .1)"></path><path d="M0 214.25L419.63 0L727.06 0L0 273.43z" fill="rgba(255, 255, 255, .075)"></path><path d="M0 273.43L727.06 0L1148.28 0L0 374.73z" fill="rgba(255, 255, 255, .05)"></path><path d="M0 374.73L1148.28 0L1180.6499999999999 0L0 490.25z" fill="rgba(255, 255, 255, .025)"></path><path d="M1440 560L1320.32 560L1440 331.95z" fill="rgba(0, 0, 0, .1)"></path><path d="M1440 331.95L1320.32 560L1223.87 560L1440 295.27z" fill="rgba(0, 0, 0, .075)"></path><path d="M1440 295.27L1223.87 560L633.9299999999998 560L1440 155.29z" fill="rgba(0, 0, 0, .05)"></path><path d="M1440 155.28999999999996L633.93 560L602.01 560L1440 93.28999999999996z" fill="rgba(0, 0, 0, .025)"></path></g><defs><mask id="SvgjsMask1010"><rect width="1440" height="560" fill="#ffffff"></rect></mask><linearGradient x1="15.28%" y1="-39.29%" x2="84.72%" y2="139.29%" gradientUnits="userSpaceOnUse" id="SvgjsLinearGradient1011"><stop stop-color="rgba(204, 217, 215, 1)" offset="0"></stop><stop stop-color="rgba(247, 247, 241, 1)" offset="1"></stop></linearGradient></defs></svg>